<svg xmlns="http://www.w3.org/2000/svg" xmlns:xlink="http://www.w3.org/1999/xlink" viewBox="0 0 958.98 958.97"><defs><style>.cls-1{fill:#fff;}.cls-2{mask:url(#mask);}.cls-3,.cls-4{fill:#464e5f;}.cls-3{fill-rule:evenodd;}.cls-4{opacity:0.4;isolation:isolate;}</style><mask id="mask" x="-95.92" y="-95.9" width="1150.77" height="1150.77" maskUnits="userSpaceOnUse"><g id="mask0_0_69" data-name="mask0 0 69"><rect class="cls-1" x="-95.92" y="-95.9" width="1150.77" height="1150.77"/></g></mask></defs><title>Aktivitas</title><g id="Layer_2" data-name="Layer 2"><g id="Layer_1-2" data-name="Layer 1"><g class="cls-2"><path class="cls-3" d="M828.08,324.08a193.85,193.85,0,0,0,35-3.37V703c0,160.83-94.87,256-255.93,256H256.35C94.87,959,0,863.82,0,703V352.71C0,191.88,94.87,95.89,256.35,95.89h382A182.46,182.46,0,0,0,635,131.25C635,237.75,721.43,324.08,828.08,324.08ZM671.66,441.54v-.84a36.17,36.17,0,0,0-6.75-50.1,35,35,0,0,0-49.75,7.15L499.63,546.37,368.08,442.8a35.44,35.44,0,0,0-50.17,6.74L176.24,632.26a34.5,34.5,0,0,0-7.59,21.89A35.43,35.43,0,0,0,234,674.79L352.48,521.53,484,624.68a35.45,35.45,0,0,0,50.6-6.31Z"/><path class="cls-4" d="M959,119.87A119.88,119.88,0,1,0,839.1,239.74,119.88,119.88,0,0,0,959,119.87Z"/></g></g></g></svg>