<svg xmlns="http://www.w3.org/2000/svg" xmlns:xlink="http://www.w3.org/1999/xlink" viewBox="0 0 887.9 986.55"><defs><style>.cls-1{fill:#fff;}.cls-2{mask:url(#mask);}.cls-3,.cls-4,.cls-5{fill:#464e5f;}.cls-3{fill-rule:evenodd;}.cls-4{opacity:0.4;isolation:isolate;}</style><mask id="mask" x="-147.98" y="-98.66" width="1183.87" height="1183.87" maskUnits="userSpaceOnUse"><g id="mask0_0_29" data-name="mask0 0 29"><rect class="cls-1" x="-147.98" y="-98.66" width="1183.87" height="1183.87"/></g></mask></defs><title>calendar</title><g id="Layer_2" data-name="Layer 2"><g id="Layer_1-2" data-name="Layer 1"><g class="cls-2"><path class="cls-3" d="M0,358H887.9V736.51c0,154.84-97.46,250-253.4,250H252.92C98.44,986.55,0,889.38,0,733.5ZM202.73,572.74c0-22.69,17.54-41.44,40-42.47a41,41,0,0,1,1.95,81.88C222.22,613.19,203.7,595.38,202.73,572.74Zm200.28,0c0-22.69,17.55-41.44,40-42.47a41,41,0,0,1,1.95,81.88C422.51,613.19,404,595.38,403,572.74Zm200.3,179a41,41,0,0,1,40-41.88h.48a41.91,41.91,0,0,1,0,83.81C621.34,793.19,603.31,774.44,603.31,751.75ZM444.93,791.21A41,41,0,0,0,443,709.33c-22.42,1-40,19.73-40,42.42C404,774.44,422.51,792.25,444.93,791.21Zm-200.78,0a41,41,0,0,0-2-81.88c-22.42,1-40,19.73-40,42.42C203.21,774.44,221.73,792.25,244.15,791.21Zm399.6-260.4c21.94,0,39.47,17.71,40.46,39.46.48,22.69-17.06,41.44-39,41.88a40.17,40.17,0,0,1-41.43-39.41v-.49C603.79,549.56,621.34,531.3,643.75,530.81Z"/><path class="cls-4" d="M7.82,253C31.22,149,110.65,82.91,224.2,73.49H663.76c112.57,9.91,193,76.45,216.37,179.55,4.54,18,7,75.92,7.6,104.92H.17C.81,329,3.24,271.54,7.82,253Z"/><path class="cls-5" d="M299.22,188.43V38c0-21.75-16.08-38-37.52-38s-37.53,16.28-37.53,38v150.4c0,21.76,16.08,38,37.53,38S299.22,210.19,299.22,188.43Z"/><path class="cls-5" d="M663.74,188.43V38c0-21.75-16.56-38-37.52-38C604.79,0,588.7,16.28,588.7,38v150.4c0,21.76,16.09,38,37.52,38C647.18,226.42,663.74,210.19,663.74,188.43Z"/></g></g></g></svg>