<svg xmlns="http://www.w3.org/2000/svg" viewBox="0 0 992.14 992.14"><defs><style>.cls-1,.cls-2{fill:#464e5f;}.cls-2{opacity:0.4;isolation:isolate;}</style></defs><title>Dashboard</title><g id="Layer_2" data-name="Layer 2"><g id="Layer_1-2" data-name="Layer 1"><path class="cls-1" d="M409.38,192.69l13.81,205.37,6.86,103.22a106,106,0,0,0,4.94,31.3,51.74,51.74,0,0,0,49.88,31.3l330.24-21.6a54.47,54.47,0,0,1,38.4,14.87,52.66,52.66,0,0,1,15.84,30.21l.59,6.94c-13.67,189.24-152.66,347.08-341.5,387.82S145.94,936.79,52.62,770.64A407.58,407.58,0,0,1,3.19,614.58,299,299,0,0,1,.05,565.64c-.3-202.88,144.18-378.28,346.42-420.56,24.34-3.79,48.21,9.09,58,31.3A52.82,52.82,0,0,1,409.38,192.69Z"/><path class="cls-2" d="M992.14,387.55l-.35,1.61-1,2.35.13,6.46a39.64,39.64,0,0,1-9.5,23.42,41.05,41.05,0,0,1-22.94,13.46l-5.44.75L572,460.29a45.5,45.5,0,0,1-34.72-11.24A43.88,43.88,0,0,1,523,422.39L497.44,41.92a6,6,0,0,1,0-4,38.88,38.88,0,0,1,12.81-27.52A40.41,40.41,0,0,1,539.22,0C765.42,5.8,955.54,168.46,992.14,387.55Z"/></g></g></svg>