<svg xmlns="http://www.w3.org/2000/svg" xmlns:xlink="http://www.w3.org/1999/xlink" viewBox="0 0 917.59 965.89"><defs><style>.cls-1{fill:#fff;}.cls-2{mask:url(#mask);}.cls-3,.cls-4{fill:#464e5f;}.cls-4{opacity:0.4;isolation:isolate;}</style><mask id="mask" x="-120.72" y="-96.59" width="1159.07" height="1159.07" maskUnits="userSpaceOnUse"><g id="mask0_0_87" data-name="mask0 0 87"><rect class="cls-1" x="-120.72" y="-96.59" width="1159.07" height="1159.07"/></g></mask></defs><title>Setting</title><g id="Layer_2" data-name="Layer 2"><g id="Layer_1-2" data-name="Layer 1"><g class="cls-2"><path class="cls-3" d="M319.25,483.43c0-75.82,62.68-136.67,140.18-136.67s138.68,60.85,138.68,136.67-61.2,136.19-138.68,136.19S319.25,559.25,319.25,483.43Z"/><path class="cls-4" d="M864.58,559.25c-13.81-6.76-22.7-17.87-30.6-30.91-25.16-41.53-10.36-96.1,31.59-120.73,49.36-27.53,65.15-88.87,36.52-136.68l-33.06-57a102,102,0,0,0-138.69-36.7C686.91,200.42,631.14,185,606,143.92c-7.9-13.52-12.34-28-11.36-42.5,1.49-18.84-4.44-36.71-13.32-51.19C563,20.28,530,0,493.43,0H423.85c-36,1-69.1,20.28-87.36,50.23a86.12,86.12,0,0,0-13.82,51.19c1,14.49-3.46,29-11.35,42.5-25.17,41.05-80.95,56.5-123.88,33.32a102.61,102.61,0,0,0-139.19,36.7l-33.06,57C-12.95,318.74,2.85,380.08,51.71,407.61c41.95,24.63,56.76,79.2,32.08,120.73-8.39,13-17.27,24.15-31.09,30.91-16.78,9.18-31.59,23.67-39.49,38.15-18.26,29.94-17.27,67.61,1,99l34.05,58a103.07,103.07,0,0,0,87.86,50.23c16.78,0,36.52-4.84,52.31-14.49,12.34-8.21,27.15-11.11,43.44-11.11,48.86,0,89.82,40.09,90.81,87.9,0,55.53,45.4,99,102.66,99h67.12c56.76,0,102.16-43.47,102.16-99,1.49-47.81,42.45-87.9,91.31-87.9,15.8,0,30.6,2.9,43.44,11.11a103.07,103.07,0,0,0,52.31,14.49c35,0,69.1-19.32,87.36-50.23l34.54-58c17.77-32.36,19.25-69.07,1-99C895.19,582.92,881.86,568.43,864.58,559.25Z"/></g></g></g></svg>