<svg xmlns="http://www.w3.org/2000/svg" xmlns:xlink="http://www.w3.org/1999/xlink" viewBox="0 0 963.38 867.06"><defs><style>.cls-1{fill:#fff;}.cls-2{mask:url(#mask);}.cls-3,.cls-4{fill:#464e5f;}.cls-3{opacity:0.4;isolation:isolate;}</style><mask id="mask" x="-96.36" y="-144.49" width="1156.06" height="1156.06" maskUnits="userSpaceOnUse"><g id="mask0_0_79" data-name="mask0 0 79"><rect class="cls-1" x="-96.36" y="-144.49" width="1156.06" height="1156.06"/></g></mask></defs><title>message</title><g id="Layer_2" data-name="Layer 2"><g id="Layer_1-2" data-name="Layer 1"><g class="cls-2"><path class="cls-3" d="M721.09,867.06H243.25C109.34,867.06,0,758.68,0,624.29v-.48s.29-213.2.67-320.42c0-20.14,23.17-31.41,38.93-18.88C154,375.3,358.72,540.86,361.27,543A195.9,195.9,0,0,0,483.13,585.9,193.35,193.35,0,0,0,605,542.5c2.55-1.69,202.64-162.28,318.83-254.57,15.79-12.58,39-1.31,39.06,18.78.48,106.41.48,316.62.48,316.62C963.38,757.72,855.48,866.58,721.09,867.06Z"/><path class="cls-4" d="M724,0H243.24A242.53,242.53,0,0,0,29.08,128.8a41.6,41.6,0,0,0,10.64,51.93L397.38,466.81a136.15,136.15,0,0,0,85.74,30.3h1a136.18,136.18,0,0,0,85.75-30.3L927.48,180.73a41.6,41.6,0,0,0,10.65-51.93A242.55,242.55,0,0,0,724,0Z"/></g></g></g></svg>